<?xml version="1.0" standalone="no"?>
<!DOCTYPE svg PUBLIC "-//W3C//DTD SVG 20010904//EN"
 "http://www.w3.org/TR/2001/REC-SVG-20010904/DTD/svg10.dtd">
<svg version="1.0" xmlns="http://www.w3.org/2000/svg"
 width="512.000000pt" height="512.000000pt" viewBox="0 0 512.000000 512.000000"
 preserveAspectRatio="xMidYMid meet">

<g transform="translate(0.000000,512.000000) scale(0.100000,-0.100000)"
fill="#3EB489" stroke="none">
<path d="M2473 5106 c-23 -7 -57 -23 -75 -34 -40 -25 -125 -114 -185 -195 -76
-101 -180 -160 -305 -173 -77 -7 -148 9 -273 62 -83 36 -97 38 -185 38 -83 0
-101 -3 -145 -26 -50 -26 -107 -80 -137 -129 -28 -44 -48 -118 -62 -224 -32
-244 -162 -377 -402 -410 -132 -19 -152 -24 -209 -52 -65 -32 -120 -85 -153
-148 -23 -44 -26 -62 -26 -145 0 -88 2 -102 38 -185 53 -125 69 -196 62 -273
-13 -125 -72 -229 -173 -305 -103 -76 -182 -158 -211 -216 -36 -74 -38 -181
-5 -254 27 -58 106 -143 188 -202 121 -86 179 -177 198 -309 12 -86 -2 -156
-59 -291 -35 -81 -38 -99 -39 -180 0 -102 21 -164 78 -224 70 -73 142 -103
304 -125 248 -34 377 -164 409 -411 21 -157 51 -232 125 -302 60 -57 122 -78
224 -78 81 1 99 4 180 39 135 57 205 71 291 59 132 -19 223 -77 309 -198 59
-82 144 -161 202 -188 67 -30 179 -30 246 0 58 27 143 106 202 188 86 121 177
179 309 198 86 12 156 -2 291 -59 81 -35 99 -38 180 -39 73 0 99 4 140 23 65
30 120 84 155 152 31 62 36 81 55 214 33 238 166 370 403 401 125 17 146 22
212 56 105 53 168 146 177 263 6 71 -13 152 -57 251 -42 94 -56 177 -42 259
21 129 79 217 197 301 82 59 161 144 188 202 30 67 30 179 0 246 -27 58 -106
143 -188 202 -121 86 -179 177 -198 309 -12 86 2 156 59 291 35 81 38 99 39
180 0 102 -21 164 -78 224 -71 74 -145 104 -303 125 -242 32 -376 163 -409
402 -19 133 -24 152 -55 214 -35 68 -90 122 -155 152 -41 19 -67 23 -140 23
-81 -1 -99 -4 -180 -39 -126 -53 -196 -69 -273 -62 -134 14 -240 78 -327 200
-59 83 -144 162 -202 188 -58 26 -154 32 -210 14z m118 -313 c14 -16 51 -63
83 -105 135 -181 338 -281 571 -282 126 -1 179 10 311 65 51 22 101 39 112 39
26 0 39 -35 52 -146 20 -176 84 -308 210 -434 126 -127 259 -191 434 -210 109
-12 146 -25 146 -52 0 -11 -17 -61 -39 -112 -55 -132 -66 -185 -65 -311 1
-129 18 -204 74 -320 53 -108 117 -184 226 -266 112 -84 121 -94 104 -115 -8
-8 -55 -47 -106 -85 -109 -82 -170 -154 -224 -264 -56 -116 -73 -191 -74 -320
-1 -126 10 -179 65 -311 22 -51 39 -101 39 -112 0 -26 -35 -39 -146 -52 -176
-20 -308 -84 -434 -210 -126 -126 -190 -258 -210 -434 -13 -111 -26 -146 -52
-146 -11 0 -61 17 -112 39 -132 55 -185 66 -311 65 -129 -1 -204 -18 -320 -74
-108 -53 -184 -117 -266 -226 -37 -50 -75 -96 -83 -104 -21 -17 -31 -8 -115
104 -152 201 -343 299 -586 300 -126 1 -180 -11 -311 -65 -51 -22 -101 -39
-112 -39 -26 0 -39 35 -52 146 -20 173 -84 308 -205 430 -126 128 -262 194
-438 214 -112 13 -147 26 -147 52 0 11 17 61 39 112 55 132 66 185 65 311 -1
129 -18 204 -74 320 -53 108 -117 184 -226 266 -50 37 -96 75 -104 83 -17 21
-8 31 104 115 109 82 173 158 226 266 56 116 73 191 74 320 1 126 -10 179 -65
311 -22 51 -39 101 -39 112 0 27 37 40 147 52 174 19 312 86 438 214 121 122
185 257 205 430 13 111 26 146 52 146 11 0 61 -17 112 -39 132 -55 185 -66
311 -65 129 1 204 18 320 74 102 50 186 119 254 212 61 81 101 128 111 128 3
0 17 -12 31 -27z"/>
<path d="M1855 3896 c-84 -21 -147 -57 -211 -121 -177 -176 -177 -453 1 -630
258 -259 695 -118 757 244 24 141 -22 281 -127 387 -112 113 -269 158 -420
120z m175 -306 c45 -23 80 -80 80 -130 0 -76 -74 -150 -151 -150 -46 0 -108
39 -130 82 -37 72 -14 151 57 194 48 29 92 30 144 4z"/>
<path d="M2440 2650 l-900 -1200 120 -90 120 -90 900 1200 900 1200 -120 90
-120 90 -900 -1200z"/>
<path d="M3055 2096 c-84 -21 -147 -57 -211 -121 -177 -176 -177 -453 1 -630
258 -259 695 -118 757 244 24 141 -22 281 -127 387 -112 113 -269 158 -420
120z m175 -306 c45 -23 80 -80 80 -130 0 -76 -74 -150 -151 -150 -46 0 -108
39 -130 82 -37 72 -14 151 57 194 48 29 92 30 144 4z"/>
</g>
</svg>
