<?xml version="1.0" encoding="UTF-8"?>
<!DOCTYPE svg PUBLIC "-//W3C//DTD SVG 1.1//EN" "http://www.w3.org/Graphics/SVG/1.1/DTD/svg11.dtd">
<svg xmlns="http://www.w3.org/2000/svg" version="1.1" width="512px" height="512px" style="shape-rendering:geometricPrecision; text-rendering:geometricPrecision; image-rendering:optimizeQuality; fill-rule:evenodd; clip-rule:evenodd" xmlns:xlink="http://www.w3.org/1999/xlink">
<g><path style="opacity:0.987" fill="#6A3DE8" d="M 271.5,-0.5 C 283.167,-0.5 294.833,-0.5 306.5,-0.5C 366.576,8.40763 409.409,40.4076 435,95.5C 437.213,100.304 438.713,105.304 439.5,110.5C 414.086,118.188 388.753,126.188 363.5,134.5C 345.359,91.5295 313.359,74.3628 267.5,83C 241.496,91.0043 223.996,107.838 215,133.5C 207.754,159.359 211.754,183.359 227,205.5C 229.973,209.974 233.14,214.307 236.5,218.5C 279.161,219.5 321.828,219.833 364.5,219.5C 364.5,246.167 364.5,272.833 364.5,299.5C 329.5,299.5 294.5,299.5 259.5,299.5C 260.22,332.455 252.553,363.288 236.5,392C 253.797,399.643 269.797,409.309 284.5,421C 317.597,437.196 348.263,433.529 376.5,410C 385.457,399.394 393.957,388.561 402,377.5C 424.116,392.471 445.95,407.804 467.5,423.5C 451.453,451.381 429.787,473.881 402.5,491C 383.336,501.698 363.003,508.531 341.5,511.5C 329.833,511.5 318.167,511.5 306.5,511.5C 273.194,507.119 243.527,494.285 217.5,473C 184.442,455.344 153.442,458.344 124.5,482C 117.333,489.833 110.167,497.667 103,505.5C 83.0336,487.869 63.3669,469.869 44,451.5C 59.968,429.215 80.1346,411.382 104.5,398C 138.303,387.861 161.469,366.361 174,333.5C 177.415,322.425 178.915,311.092 178.5,299.5C 143.5,299.5 108.5,299.5 73.5,299.5C 73.5,272.833 73.5,246.167 73.5,219.5C 96.5097,219.833 119.51,219.5 142.5,218.5C 120.555,159.513 128.722,105.18 167,55.5C 194.888,23.8069 229.721,5.14026 271.5,-0.5 Z"/></g>
</svg>
